<svg width="34" height="34" viewBox="0 0 34 34" fill="none" xmlns="http://www.w3.org/2000/svg">
<path fill-rule="evenodd" clip-rule="evenodd" d="M3.4 0H30.6C32.4778 0 34 1.52223 34 3.4V30.6C34 32.4778 32.4778 34 30.6 34H3.4C1.52223 34 0 32.4778 0 30.6V3.4C0 1.52223 1.52223 0 3.4 0ZM3.40001 3.39995V30.5999H30.6V3.39995H3.40001ZM15.5262 17.0074H18.7V27.1999H22.1V17.0074H25.4701V13.6074H22.1V11.8999C22.1 10.961 22.8611 10.1999 23.8 10.1999H25.5V6.7999H23.8C20.9834 6.7999 18.7 9.08324 18.7 11.8999V13.6074H15.5262V17.0074Z" fill="#64696C"/>
</svg>
