<svg width="36" height="36" viewBox="0 0 36 36" fill="none" xmlns="http://www.w3.org/2000/svg">
<path fill-rule="evenodd" clip-rule="evenodd" d="M25 0.5H11C5.20101 0.5 0.5 5.20101 0.5 11V25C0.5 30.799 5.20101 35.5 11 35.5H25C30.799 35.5 35.5 30.799 35.5 25V11C35.5 5.20101 30.799 0.5 25 0.5ZM4 11C4 7.13401 7.13401 4 11 4H25C28.866 4 32 7.13401 32 11V25C32 28.866 28.866 32 25 32H11C7.13401 32 4 28.866 4 25V11ZM18 26.75C13.1675 26.75 9.25 22.8325 9.25 18C9.25 13.1675 13.1675 9.25 18 9.25C22.8325 9.25 26.75 13.1675 26.75 18C26.75 22.8325 22.8325 26.75 18 26.75ZM18 23.25C20.8995 23.25 23.25 20.8995 23.25 18C23.25 15.1005 20.8995 12.75 18 12.75C15.1005 12.75 12.75 15.1005 12.75 18C12.75 20.8995 15.1005 23.25 18 23.25ZM28.5 9.25C28.5 10.2165 27.7165 11 26.75 11C25.7835 11 25 10.2165 25 9.25C25 8.2835 25.7835 7.5 26.75 7.5C27.7165 7.5 28.5 8.2835 28.5 9.25Z" fill="#64696C"/>
</svg>
