<svg width="171" height="67" viewBox="0 0 171 67" fill="none" xmlns="http://www.w3.org/2000/svg">
<path d="M134.145 51.0999C140.311 56.4737 147.542 60.0939 158.145 64.0999C146.949 46.7177 152.022 37.8557 168.145 22.6C156.371 22.4049 150.368 23.934 141.645 32.1C120.626 17.6016 49.5122 -6.20983 15.1446 3.09997C6.24608 5.51048 2.22377 8.28168 1.24456 11.0999C-1.55809 19.1662 20.5687 27.6178 24.6446 29.0999" stroke="black" stroke-width="2" stroke-linecap="round"/>
<path d="M39.227 42.0999V16.6454H42.3094V39.3655H54.1417V42.0999H39.227ZM58.9145 42.0999V16.6454H74.2767V19.3797H61.9969V27.9806H73.4812V30.715H61.9969V39.3655H74.4756V42.0999H58.9145ZM79.8324 16.6454H83.5114L92.162 37.7746H92.4603L101.111 16.6454H104.79V42.0999H101.906V22.7604H101.658L93.7032 42.0999H90.9191L82.9645 22.7604H82.716V42.0999H79.8324V16.6454Z" fill="black"/>
<path d="M39.9059 59.0999V44.5545H48.6275V46.117H41.6673V51.0317H47.9741V52.5942H41.6673V59.0999H39.9059ZM63.917 51.8272C63.917 53.3613 63.64 54.687 63.086 55.8045C62.532 56.9219 61.7721 57.7836 60.8062 58.3897C59.8403 58.9957 58.737 59.2988 57.4965 59.2988C56.256 59.2988 55.1528 58.9957 54.1868 58.3897C53.2209 57.7836 52.461 56.9219 51.907 55.8045C51.353 54.687 51.076 53.3613 51.076 51.8272C51.076 50.2931 51.353 48.9673 51.907 47.8499C52.461 46.7325 53.2209 45.8707 54.1868 45.2647C55.1528 44.6586 56.256 44.3556 57.4965 44.3556C58.737 44.3556 59.8403 44.6586 60.8062 45.2647C61.7721 45.8707 62.532 46.7325 63.086 47.8499C63.64 48.9673 63.917 50.2931 63.917 51.8272ZM62.2124 51.8272C62.2124 50.5677 62.0017 49.5047 61.5803 48.6383C61.1636 47.7718 60.5978 47.116 59.8829 46.6709C59.1726 46.2259 58.3772 46.0033 57.4965 46.0033C56.6158 46.0033 55.818 46.2259 55.103 46.6709C54.3928 47.116 53.827 47.7718 53.4056 48.6383C52.9889 49.5047 52.7806 50.5677 52.7806 51.8272C52.7806 53.0867 52.9889 54.1496 53.4056 55.0161C53.827 55.8826 54.3928 56.5384 55.103 56.9834C55.818 57.4285 56.6158 57.6511 57.4965 57.6511C58.3772 57.6511 59.1726 57.4285 59.8829 56.9834C60.5978 56.5384 61.1636 55.8826 61.5803 55.0161C62.0017 54.1496 62.2124 53.0867 62.2124 51.8272ZM79.1513 51.8272C79.1513 53.3613 78.8743 54.687 78.3204 55.8045C77.7664 56.9219 77.0064 57.7836 76.0405 58.3897C75.0746 58.9957 73.9714 59.2988 72.7309 59.2988C71.4903 59.2988 70.3871 58.9957 69.4212 58.3897C68.4553 57.7836 67.6954 56.9219 67.1414 55.8045C66.5874 54.687 66.3104 53.3613 66.3104 51.8272C66.3104 50.2931 66.5874 48.9673 67.1414 47.8499C67.6954 46.7325 68.4553 45.8707 69.4212 45.2647C70.3871 44.6586 71.4903 44.3556 72.7309 44.3556C73.9714 44.3556 75.0746 44.6586 76.0405 45.2647C77.0064 45.8707 77.7664 46.7325 78.3204 47.8499C78.8743 48.9673 79.1513 50.2931 79.1513 51.8272ZM77.4468 51.8272C77.4468 50.5677 77.2361 49.5047 76.8147 48.6383C76.398 47.7718 75.8322 47.116 75.1172 46.6709C74.407 46.2259 73.6116 46.0033 72.7309 46.0033C71.8502 46.0033 71.0524 46.2259 70.3374 46.6709C69.6272 47.116 69.0614 47.7718 68.64 48.6383C68.2233 49.5047 68.015 50.5677 68.015 51.8272C68.015 53.0867 68.2233 54.1496 68.64 55.0161C69.0614 55.8826 69.6272 56.5384 70.3374 56.9834C71.0524 57.4285 71.8502 57.6511 72.7309 57.6511C73.6116 57.6511 74.407 57.4285 75.1172 56.9834C75.8322 56.5384 76.398 55.8826 76.8147 55.0161C77.2361 54.1496 77.4468 53.0867 77.4468 51.8272ZM86.6016 59.0999H82.113V44.5545H86.8005C88.2115 44.5545 89.4189 44.8457 90.4226 45.428C91.4264 46.0057 92.1958 46.8367 92.7309 47.9209C93.2659 49.0005 93.5334 50.2931 93.5334 51.7988C93.5334 53.3139 93.2635 54.6184 92.7238 55.7121C92.184 56.8011 91.398 57.6392 90.3658 58.2263C89.3336 58.8087 88.0789 59.0999 86.6016 59.0999ZM83.8743 57.5374H86.488C87.6906 57.5374 88.6873 57.3054 89.478 56.8414C90.2688 56.3774 90.8582 55.7169 91.2465 54.8599C91.6348 54.0029 91.8289 52.9825 91.8289 51.7988C91.8289 50.6245 91.6371 49.6136 91.2536 48.7661C90.8701 47.9138 90.2972 47.2604 89.5349 46.8059C88.7725 46.3466 87.8232 46.117 86.6868 46.117H83.8743V57.5374ZM104.443 48.1908C104.357 47.4711 104.012 46.9124 103.406 46.5147C102.8 46.117 102.056 45.9181 101.175 45.9181C100.532 45.9181 99.9681 46.0223 99.4851 46.2306C99.0069 46.4389 98.6329 46.7254 98.363 47.09C98.0978 47.4546 97.9653 47.8689 97.9653 48.3329C97.9653 48.7211 98.0576 49.0549 98.2422 49.3343C98.4316 49.6089 98.6731 49.8386 98.9667 50.0232C99.2602 50.2031 99.568 50.3523 99.89 50.4707C100.212 50.5843 100.508 50.6766 100.778 50.7476L102.255 51.1454C102.634 51.2448 103.055 51.3821 103.519 51.5573C103.988 51.7325 104.435 51.9716 104.862 52.2746C105.292 52.5729 105.648 52.9564 105.927 53.4252C106.206 53.8939 106.346 54.4692 106.346 55.1511C106.346 55.937 106.14 56.6473 105.728 57.2817C105.321 57.9162 104.724 58.4205 103.938 58.7945C103.157 59.1686 102.208 59.3556 101.09 59.3556C100.049 59.3556 99.1466 59.1875 98.3843 58.8513C97.6267 58.5152 97.0301 58.0464 96.5945 57.4451C96.1636 56.8438 95.9198 56.1454 95.863 55.3499H97.6812C97.7285 55.8992 97.9132 56.3537 98.2351 56.7136C98.5618 57.0687 98.9738 57.3338 99.4709 57.509C99.9728 57.6795 100.513 57.7647 101.09 57.7647C101.763 57.7647 102.366 57.6558 102.901 57.438C103.436 57.2154 103.86 56.9077 104.173 56.5147C104.485 56.117 104.641 55.6529 104.641 55.1226C104.641 54.6397 104.506 54.2467 104.237 53.9437C103.967 53.6406 103.612 53.3944 103.171 53.205C102.731 53.0156 102.255 52.8499 101.744 52.7079L99.9539 52.1965C98.8175 51.8698 97.9179 51.4034 97.255 50.7974C96.5921 50.1913 96.2607 49.3982 96.2607 48.4181C96.2607 47.6037 96.4809 46.8935 96.9212 46.2874C97.3663 45.6766 97.9629 45.2031 98.711 44.867C99.4638 44.5261 100.304 44.3556 101.232 44.3556C102.17 44.3556 103.003 44.5237 103.732 44.8599C104.461 45.1913 105.039 45.6458 105.465 46.2235C105.896 46.8011 106.123 47.4569 106.147 48.1908H104.443Z" fill="black"/>
</svg>
