<svg width="40" height="28" viewBox="0 0 40 28" fill="none" xmlns="http://www.w3.org/2000/svg">
<path fill-rule="evenodd" clip-rule="evenodd" d="M37.5433 24.7243C38.7391 22.675 39.25 19.3705 39.25 13.9951C39.25 8.64112 38.7439 5.35585 37.5354 3.25155C36.3242 1.06639 34.8878 0.372805 32.037 0.206326C30.0909 0.0744139 25.254 0 20.0047 0C14.7441 0 9.90503 0.0743862 7.94426 0.20736C5.10945 0.373202 3.67269 1.06831 2.45088 3.25955C1.25992 5.35658 0.75 8.6579 0.75 14.0147C0.75 19.3411 1.26239 22.659 2.46135 24.7492C3.66727 26.9122 5.08113 27.5989 7.94006 27.7997C9.99482 27.9199 15.1077 28 20.0047 28C24.8906 28 30.001 27.9199 32.037 27.801C34.9222 27.599 36.3358 26.9111 37.5433 24.7243ZM31.8167 3.69935C33.5999 3.80356 33.9306 3.96384 34.4958 4.98686C35.3187 6.41199 35.75 9.201 35.75 14.0147C35.75 18.792 35.3164 21.5963 34.4996 22.9967C33.9325 24.0229 33.6041 24.1827 31.8127 24.3083C29.8856 24.4207 24.8247 24.5 20.0047 24.5C15.1737 24.5 10.1103 24.4207 8.1648 24.307C6.39552 24.1826 6.06239 24.0208 5.50779 23.0261C4.68551 21.5924 4.25 18.7723 4.25 13.9951C4.25 9.22073 4.68319 6.41618 5.50107 4.97599C6.06431 3.96597 6.39977 3.80367 8.16492 3.70036C10.0339 3.57369 14.8274 3.5 20.0047 3.5C25.1708 3.5 29.9621 3.57371 31.8167 3.69935ZM16.5 8.75L25.25 14L16.5 19.25V8.75Z" fill="#64696C"/>
</svg>
